<?xml version="1.0" encoding="utf-8"?>
<!-- Generator: Adobe Illustrator 23.0.3, SVG Export Plug-In . SVG Version: 6.00 Build 0)  -->
<svg version="1.1" id="圖層_1" xmlns="http://www.w3.org/2000/svg" xmlns:xlink="http://www.w3.org/1999/xlink" x="0px" y="0px"
	 viewBox="0 0 640 320" style="enable-background:new 0 0 640 320;" xml:space="preserve">
<style type="text/css">
	.st0{fill:#E71F19;}
	.st1{fill:#FFFFFF;}
</style>
<ellipse class="st0" cx="320" cy="160" rx="320" ry="160"/>
<g>
	<path class="st1" d="M168.3,128.4l-18.1,102.9h-43L132.6,87h56c24.5,0,42.8,5.6,54.7,16.7c14.2,13.3,19.2,31.4,15.2,54.3
		c-3.9,21.9-14.1,39.7-30.6,53.5c-16.5,13.8-35.9,20.7-58.1,20.7c-2.6,0-6.9-0.1-12.7-0.4l7.5-42.4h6.9c25,0,39.4-10.5,43.1-31.4
		c3.5-19.7-7.1-29.5-31.7-29.5H168.3z"/>
	<path class="st1" d="M395,87l-89.9,152.7L269.5,87h49.7l5.3,45.1L347.1,87H395z"/>
	<path class="st1" d="M440,128.4l-18.2,102.9h-43L404.4,87h56c24.5,0,42.8,5.6,54.7,16.7c14.2,13.3,19.2,31.4,15.2,54.3
		c-3.9,21.9-14.1,39.7-30.6,53.5c-16.5,13.8-35.9,20.7-58.1,20.7c-2.6,0-6.9-0.1-12.7-0.4l7.5-42.4h6.9c25,0,39.4-10.5,43.1-31.4
		c3.5-19.7-7.1-29.5-31.7-29.5H440z"/>
</g>
</svg>
